<?xml version="1.0" encoding="utf-8"?>
<!-- Generator: $$$/GeneralStr/196=Adobe Illustrator 27.6.0, SVG Export Plug-In . SVG Version: 6.00 Build 0)  -->
<svg version="1.1" id="Capa_1" xmlns="http://www.w3.org/2000/svg" xmlns:xlink="http://www.w3.org/1999/xlink" x="0px" y="0px"
	 viewBox="0 0 1004.94 720" style="enable-background:new 0 0 1004.94 720;" xml:space="preserve">
<style type="text/css">
	.st0{fill:#111E31;}
	.st1{fill:url(#SVGID_1_);}
	.st2{fill:#1B3966;}
	.st3{font-family:'Poppins-SemiBoldItalic';}
	.st4{font-size:56.4113px;}
	.st5{fill:#1D1D1B;}
	.st6{fill:#0B569D;}
	.st7{fill:#7BC5EE;}
	.st8{fill:#5F6368;}
	.st9{fill:url(#SVGID_00000133515747050950709420000007439198928624275347_);}
	.st10{fill:url(#SVGID_00000115477657675221431910000012446535561778835131_);}
	.st11{fill:url(#SVGID_00000178166049997171708970000003018039963553305015_);}
	.st12{fill:url(#SVGID_00000109726436317181490290000001201801653286067328_);}
	.st13{fill:#2B8FCE;}
	.st14{fill:url(#SVGID_00000101074975964798440960000005385110188748521347_);}
	.st15{fill:url(#SVGID_00000125572577992179670020000017935448026768637864_);}
	.st16{fill:url(#SVGID_00000038375676666672632820000014419845701944054179_);}
	.st17{fill:url(#SVGID_00000129907964380358514280000000524712236929072263_);}
	.st18{fill:url(#SVGID_00000066478663545789273330000003178089617046485142_);}
	.st19{fill:url(#SVGID_00000146486724021329930190000000569965055088896688_);}
	.st20{fill:url(#SVGID_00000084489177908195305190000012937157281697317271_);}
	.st21{fill:url(#SVGID_00000096031948860738657880000000271382129733788854_);}
	.st22{fill:url(#SVGID_00000076567899591102301830000017504943518128048800_);}
</style>
<g>
	<g>
		<g>
			<path class="st0" d="M545.97,142.53l-53.43,267.09h-61.8l21.74-108.74H331.53L309.8,409.42c-22.77-9.34-43.67-10.3-60.57-8.03
				l51.78-258.87h62.19l-20.98,104.91h120.94l20.98-104.91H545.97z"/>
		</g>
	</g>
	<g>
		<linearGradient id="SVGID_1_" gradientUnits="userSpaceOnUse" x1="659.302" y1="660.6079" x2="373.5854" y2="269.1762">
			<stop  offset="0" style="stop-color:#1B3966"/>
			<stop  offset="1" style="stop-color:#111E31"/>
		</linearGradient>
		<path class="st1" d="M620.64,441.17c-38.87,1.36-81.62,29.74-105.03,41.55c-25.83,13.03-53.33,22.59-81.86,27.36
			c-129.88,21.74-197.7-48.26-197.7-48.26c78.57,57.14,221.43-8.57,221.43-8.57c111.43-58.57,218.57-22.86,218.57-22.86
			c3.33,1.31,4.76,2.86,4.76,2.86L658.3,537.13c-13.49,10.43-29.13,18.44-46.93,24.04c-17.81,5.59-36.25,8.4-55.33,8.4
			c-26.71,0-49.99-4.83-69.83-14.5c-19.84-9.67-35.17-23.28-45.98-40.83c-10.81-17.55-16.22-37.78-16.22-60.67
			c0-30.27,6.99-57.62,20.99-82.04c13.99-24.42,33.7-43.56,59.14-57.43c25.43-13.86,54.69-20.79,87.76-20.79
			c25.43,0,47.51,3.95,66.2,11.83c18.7,7.89,33.77,19.46,45.22,34.72l-44.26,35.87c-8.91-10.43-18.95-17.99-30.14-22.7
			c-11.2-4.7-24.42-7.06-39.68-7.06c-20.36,0-38.29,4.52-53.8,13.55c-15.52,9.03-27.54,21.43-36.06,37.2
			c-8.53,15.78-12.78,33.45-12.78,53.04c0,20.61,6.68,36.95,20.03,49.03c13.35,12.09,32.49,18.12,57.43,18.12
			c15.77,0,30.53-3.18,44.26-9.54l15.64-80.13"/>
	</g>
	<path class="st0" d="M188.67,453.48c0,0,50-36.91,114.76-6.9c0,0,46.55,22.38,94.05,4.52c0,0-62.62,40.71-136.19,10.71
		C261.29,461.82,225.82,443.48,188.67,453.48z"/>
	<g>
		<text transform="matrix(1 0 0 1 698.1389 544.0204)" class="st2 st3 st4">SAC</text>
	</g>
</g>
</svg>
