<svg xmlns="http://www.w3.org/2000/svg" height="40px" viewBox="0 -960 960 960" width="40px" fill="#1d3360"><path d="M446.67-42v-76.67q-133-14-223.5-104.5t-104.5-223.5H42v-66.66h76.67q14-133 104.5-223.5t223.5-104.5V-918h66.66v76.67q133 14 223.5 104.5t104.5 223.5H918v66.66h-76.67q-14 133-104.5 223.5t-223.5 104.5V-42h-66.66ZM689-271q87-87 87-209t-87-209q-87-87-209-87t-209 87q-87 87-87 209t87 209q87 87 209 87t209-87ZM371.33-371.33Q326.67-416 326.67-480t44.66-108.67Q416-633.33 480-633.33t108.67 44.66Q633.33-544 633.33-480t-44.66 108.67Q544-326.67 480-326.67t-108.67-44.66ZM541.5-418.5q25.17-25.17 25.17-61.5t-25.17-61.5q-25.17-25.17-61.5-25.17t-61.5 25.17q-25.17 25.17-25.17 61.5t25.17 61.5q25.17 25.17 61.5 25.17t61.5-25.17ZM480-480Z"/></svg>